<svg xmlns="http://www.w3.org/2000/svg" viewBox="0 0 64 64"><path d="M51.483 13.308a27.02 27.02 0 0 0-16.369-8.13l-.229 1.986a25.02 25.02 0 0 1 15.154 7.528l1.444-1.384zm-20.445-6.29a26.833 26.833 0 0 1 1.924 0l.076-1.998a26.614 26.614 0 0 0-2.076 0l.076 1.998zM7 32C7 19.29 16.507 8.612 29.114 7.164l-.229-1.986C15.269 6.742 5 18.273 5 32s10.269 25.258 23.886 26.822l.229-1.986C16.507 55.388 7 44.71 7 32zm24.038 24.982-.076 1.998a25.53 25.53 0 0 0 2.076 0l-.076-1.998c-.638.024-1.286.024-1.924 0zM54 32.5h2.977c-.248 12.487-9.651 22.907-22.091 24.336l.229 1.986c13.45-1.545 23.627-12.817 23.873-26.322H62l-4-6-4 6zm7.841-26.718c-2.202-.69-2.933-1.422-3.624-3.623-.066-.212-.369-.212-.435 0-.69 2.202-1.422 2.933-3.623 3.623-.212.066-.212.369 0 .435 2.202.69 2.933 1.422 3.623 3.623.066.212.369.212.435 0 .69-2.202 1.422-2.933 3.624-3.623.212-.066.212-.368 0-.435zm-52 52c-2.202-.69-2.933-1.422-3.623-3.623-.066-.212-.369-.212-.435 0-.69 2.202-1.422 2.933-3.624 3.623-.212.066-.212.369 0 .435 2.202.69 2.933 1.422 3.624 3.623.066.212.369.212.435 0 .69-2.202 1.422-2.933 3.623-3.623.212-.066.212-.368 0-.435z"/><path d="M11 32c0 11.598 9.402 21 21 21s21-9.402 21-21-9.402-21-21-21-21 9.402-21 21zm10-4h7v-7h8v7h7v8h-7v7h-8v-7h-7v-8z"/></svg>